<svg width="73" height="14" viewBox="0 0 73 14" fill="none" xmlns="http://www.w3.org/2000/svg">
<path fill-rule="evenodd" clip-rule="evenodd" d="M47.4526 7.65758C47.4952 7.93316 47.5166 8.14514 47.5805 8.35712C48.0497 10.3286 49.6066 11.6429 51.6327 11.8125C53.4241 11.9608 54.8317 11.2825 55.8767 9.81981C56.3886 9.12027 57.2204 8.99308 57.8815 9.56543C58.2654 9.88341 58.308 10.3074 58.0095 10.7101C57.8388 10.9221 57.6895 11.1341 57.5189 11.3673C56.8365 12.3 55.9407 12.936 54.8317 13.3175C53.0403 13.9323 51.2488 14.0171 49.4786 13.3599C47.09 12.4908 45.6824 10.7525 45.2772 8.27233C45.0426 6.74605 45.1919 5.21976 45.8957 3.84187C46.9194 1.87042 48.5189 0.662113 50.7369 0.301741C52.2085 0.0685586 53.6587 0.216947 55.0237 0.874097C56.9644 1.78563 58.1374 3.33311 58.5853 5.38935C58.7132 5.96171 58.7559 6.53406 58.7986 7.10642C58.8412 7.46679 58.6706 7.61518 58.308 7.63638C58.1374 7.63638 57.9881 7.63638 57.8175 7.63638C54.5118 7.63638 51.2061 7.63638 47.9218 7.63638C47.7725 7.65758 47.6658 7.65758 47.4526 7.65758ZM56.4739 5.49534C56.1967 3.65109 53.9573 2.04001 51.8886 2.1672C49.7346 2.29439 47.6019 3.92666 47.5166 5.49534C50.481 5.49534 53.4881 5.49534 56.4739 5.49534Z" fill="white" fill-opacity="0.5"/>
<path fill-rule="evenodd" clip-rule="evenodd" d="M30.5189 7.59395C30.5403 7.78474 30.5616 7.91193 30.5829 8.06031C30.9881 10.2437 32.7796 11.7488 34.9976 11.7912C36.6824 11.8124 37.9834 11.1341 38.9644 9.77738C39.4763 9.05664 40.3933 8.97185 41.0332 9.6078C41.3317 9.92577 41.3957 10.3073 41.0971 10.6889C40.9692 10.8797 40.8412 11.0493 40.6919 11.1977C39.9668 12.2576 38.9644 12.9359 37.7488 13.3387C35.9573 13.9323 34.1659 13.9747 32.4384 13.2963C29.9644 12.3424 28.5782 10.4557 28.2796 7.82713C28.1303 6.55523 28.2583 5.32572 28.7915 4.15981C29.8365 1.95518 31.5213 0.598483 33.9739 0.280507C35.2749 0.11092 36.5758 0.216912 37.7701 0.704475C39.9455 1.59481 41.2038 3.26948 41.6943 5.53771C41.7796 6.04647 41.8436 6.59763 41.8649 7.10639C41.8862 7.53035 41.8009 7.61515 41.3531 7.61515C40.5853 7.61515 39.7749 7.61515 38.9858 7.61515C36.3412 7.61515 33.6967 7.61515 31.0948 7.61515C30.9028 7.59395 30.7322 7.59395 30.5189 7.59395ZM39.5829 5.43171C39.3057 3.60865 37.1303 2.06117 34.9976 2.10357C32.9289 2.14596 30.7749 3.79944 30.6042 5.43171C33.59 5.43171 36.5545 5.43171 39.5829 5.43171Z" fill="white" fill-opacity="0.5"/>
<path fill-rule="evenodd" clip-rule="evenodd" d="M67.6279 8.56922C67.7986 8.7176 67.8839 8.8024 67.9905 8.88719C69.1422 9.86232 70.2938 10.8374 71.4242 11.8126C71.4881 11.8762 71.5948 11.961 71.6588 12.0246C72.0853 12.4485 72.128 13.0633 71.7227 13.4872C71.3389 13.9112 70.7417 13.9748 70.2938 13.6144C69.4834 12.9573 68.7156 12.2789 67.9265 11.6218C66.7962 10.6679 65.6872 9.71393 64.5569 8.76C64.4715 8.67521 64.3436 8.59042 64.173 8.46322C64.173 8.69641 64.1516 8.8448 64.1516 8.99318C64.1516 11.6854 64.1516 9.67153 64.1516 12.3637C64.1516 12.4909 64.1516 12.6181 64.1516 12.7453C64.109 13.3389 63.6611 13.7628 63.064 13.7204C62.4881 13.6992 62.1042 13.2753 62.0829 12.6817C62.0829 12.5545 62.0829 12.4273 62.0829 12.3001C62.0829 6.97934 62.0829 6.36458 62.0829 1.04379C62.0829 0.874204 62.0829 0.725815 62.0829 0.556228C62.0829 0.174657 62.1256 0.111062 62.4881 0.111062C62.9787 0.0898637 63.4692 0.0898637 63.9597 0.0898637C65.1327 0.0898637 66.3483 0.13226 67.5213 0.0686653C69.5047 -0.0161282 71.7227 1.57375 71.936 3.88437C72.128 5.96182 70.699 7.93326 68.5663 8.35723C68.2891 8.42083 67.9905 8.50562 67.6279 8.56922ZM64.0237 6.93694C64.1516 6.95814 64.2369 6.95814 64.3009 6.95814C65.282 6.95814 66.2843 6.95814 67.2654 6.95814C67.5426 6.95814 67.8412 6.93694 68.1185 6.83095C69.0355 6.55537 69.7607 6.00421 69.9953 5.02909C70.4005 3.35441 69.1422 1.82813 67.4147 1.82813C66.391 1.82813 65.3886 1.82813 64.3436 1.82813C64.2156 1.82813 64.109 1.84933 63.981 1.84933C64.0237 3.5452 64.0237 5.21987 64.0237 6.93694Z" fill="white" fill-opacity="0.5"/>
<path fill-rule="evenodd" clip-rule="evenodd" d="M22.8412 7.61509C20.8791 7.61509 18.981 7.61509 17.0403 7.61509C17.0403 7.78468 17.0189 7.93306 17.0189 8.08145C17.0189 9.56534 17.0189 11.028 17.0189 12.5119C17.0189 12.7027 17.0189 12.8935 16.9763 13.0419C16.827 13.487 16.3578 13.7626 15.9099 13.7414C15.4194 13.699 15.0142 13.3175 14.9502 12.8299C14.9289 12.7027 14.9502 12.5967 14.9502 12.4695C14.9502 7.19112 14.9289 6.55517 14.9289 1.29797C14.9289 1.08599 14.9502 0.874005 15.0142 0.683219C15.1848 0.238054 15.654 -0.016327 16.1445 0.0472681C16.5924 0.110863 16.9763 0.492434 17.0189 0.958798C17.0403 1.10719 17.0189 1.23438 17.0189 1.38277C17.0189 4.09616 17.0403 2.16711 17.0403 4.8805C17.0403 5.05009 17.0616 5.19847 17.0616 5.34686C17.4242 5.43166 22.4573 5.43166 22.8412 5.34686C22.8412 5.21967 22.8625 5.09248 22.8625 4.94409C22.8625 3.75698 22.8625 2.54868 22.8625 1.36157C22.8625 1.23438 22.8625 1.12839 22.8625 1.0012C22.9052 0.471236 23.3104 0.0684665 23.8436 0.0472681C24.3768 0.0260697 24.8673 0.428839 24.9313 0.958798C24.9526 1.08599 24.9313 1.19198 24.9313 1.31917C24.9313 5.02889 24.9313 8.7174 24.9313 12.4271C24.9313 12.5543 24.9313 12.6603 24.9313 12.7875C24.8673 13.3175 24.3981 13.7414 23.8649 13.7202C23.3317 13.699 22.9052 13.2751 22.8412 12.7451C22.8412 12.6179 22.8412 12.5119 22.8412 12.3847C22.8412 10.9644 22.8412 9.50174 22.8412 8.08145C22.8412 7.95426 22.8412 7.80587 22.8412 7.61509Z" fill="white" fill-opacity="0.5"/>
<path fill-rule="evenodd" clip-rule="evenodd" d="M5.8649 13.8261C4.47865 13.8049 3.1777 13.5081 1.98339 12.7874C1.47154 12.4906 1.00234 12.109 0.618457 11.6638C0.426514 11.4307 0.191916 11.1975 0.106608 10.9007C-0.0213538 10.5191 -0.0426808 10.0952 0.319878 9.75598C0.725092 9.37441 1.27959 9.22603 1.8341 9.5864C2.36727 9.96797 2.6232 10.4555 3.07106 10.9007C3.71087 11.5366 4.54263 11.8758 5.43836 11.9818C6.27011 12.0666 7.08054 12.0454 7.89097 11.7698C8.21087 11.6426 8.55211 11.4943 8.82936 11.2823C9.3412 10.7099 9.49049 9.90437 8.87201 9.35322C8.57343 9.09883 8.18955 8.90805 7.80566 8.73846C6.86727 8.33569 5.88623 8.06011 4.90519 7.80573C4.09476 7.61495 3.32699 7.36057 2.51656 7.12739C2.21798 7.04259 1.9194 6.873 1.64215 6.72462C0.895708 6.32185 0.469168 5.6859 0.341205 4.88036C0.106608 3.20569 0.725092 1.7006 2.19666 0.958657C4.49997 -0.164857 6.8886 -0.058865 9.19192 1.23424C9.61846 1.46742 10.0237 1.82779 10.3862 2.14577C10.6635 2.37895 10.8767 2.71812 10.9834 3.0785C11.09 3.52366 10.8767 3.99003 10.3222 4.11722C9.85305 4.22321 9.42651 4.07482 9.08528 3.71445C9.0213 3.65085 8.95732 3.56606 8.91466 3.50246C8.38149 2.69692 7.59239 2.25176 6.654 2.08217C5.71561 1.91258 4.77722 1.93378 3.88149 2.29416C3.56158 2.42135 3.22035 2.59093 2.96443 2.82411C2.58054 3.33288 2.43125 4.01122 2.9431 4.64718C3.34831 5.02875 3.81751 5.24073 4.32936 5.34672C5.45969 5.6223 6.61135 5.91908 7.74168 6.19466C8.4668 6.38544 9.17059 6.61862 9.83173 7.0002C10.6848 7.44536 11.3033 8.10251 11.5166 9.05644C11.7725 10.2223 11.5166 11.3247 10.5995 12.1726C9.55447 13.1053 8.36016 13.6141 6.97391 13.7625C6.59002 13.8049 6.20613 13.8049 5.8649 13.8261Z" fill="white" fill-opacity="0.5"/>
</svg>
