<svg width="248" height="53" viewBox="0 0 248 53" fill="none" xmlns="http://www.w3.org/2000/svg">
<g clip-path="url(#clip0_4_8)">
<path fill-rule="evenodd" clip-rule="evenodd" d="M44.8358 26.471C44.9504 26.5869 45.1221 26.7027 45.2367 26.8186L45.3512 26.9344L45.4657 27.0503C49.3022 31.047 53.1388 34.9858 56.918 38.9825L70.3173 52.9421L43.0607 52.8842L32.5246 41.8787C31.3221 48.1344 25.8822 52.8842 19.3544 52.8842H3.89379V41.4732H0V11.4689H3.89379V0.0579235H19.3544C25.8822 0.0579235 31.3221 4.80765 32.5246 11.0634L43.1753 0L70.3745 0.115847L55.372 15.5814C52.0508 18.9989 48.7869 22.4164 45.523 25.8339L45.4085 25.9497L45.2367 26.1235C45.1221 26.2393 45.0076 26.3552 44.8358 26.471ZM12.0249 8.28306H19.3544C22.2748 8.28306 24.6798 10.7158 24.6798 13.6699V19.694C26.8557 19.694 29.0316 19.694 31.2076 19.694C32.8109 19.694 34.7578 19.6361 36.1893 18.7672C36.6474 18.4776 37.0483 18.1301 37.4491 17.7825L46.6682 8.16721H51.1919L49.5885 9.847C46.3246 13.2645 43.0035 16.682 39.7396 20.0995C37.22 22.5322 34.7005 22.9377 31.2648 22.8798C24.6798 22.8798 18.0374 22.8798 11.4523 22.8798V29.8885C14.8308 29.8885 18.1519 29.8885 21.5304 29.8885V24.212C22.6183 24.3858 23.7063 24.5016 24.7943 24.6754V29.9465C26.9702 29.9465 29.1462 29.9465 31.3221 29.9465C34.7578 29.9465 37.2773 30.294 39.7968 32.7268C43.4616 36.5497 47.5844 40.8361 51.2491 44.659H46.6682L37.3918 35.1016C36.991 34.7541 36.5902 34.4066 36.1321 34.1169C34.7005 33.2481 32.7536 33.1902 31.1503 33.1902C23.9926 33.1902 16.8349 33.1902 9.73447 33.1902H8.13115V19.694H9.73447C13.6283 19.694 17.5221 19.694 21.4158 19.694V13.6699C21.4158 12.5115 20.4997 11.5847 19.3544 11.5847H12.0249V8.28306ZM24.6798 35.1016V39.2721C24.6798 42.2262 22.2748 44.659 19.3544 44.659H12.0249V41.3574H19.3544C20.4997 41.3574 21.4158 40.4306 21.4158 39.2721V34.6383C22.5038 34.812 23.5918 34.9858 24.6798 35.1016Z" fill="#E80011"/>
<path d="M84.1173 4.4022H85.9497V8.92023L89.729 4.4022H91.6759L87.6103 9.15192L91.9049 14.365H89.729L85.9497 9.73116V14.365H84.1173V4.4022ZM96.8294 12.9749C97.7456 12.9749 98.49 12.6273 99.0626 11.9902C99.6352 11.353 99.8643 10.4842 99.8643 9.38362V9.26777C99.8643 8.22515 99.5779 7.35629 99.0626 6.71914C98.49 6.08198 97.7456 5.73444 96.8294 5.73444C95.8559 5.73444 95.1115 6.08198 94.5962 6.71914C94.0236 7.35629 93.7945 8.22515 93.7945 9.32569V9.44154C93.7945 10.5421 94.0808 11.353 94.6535 12.0481C95.1688 12.6853 95.9132 12.9749 96.8294 12.9749ZM96.8294 14.4809C95.3406 14.4809 94.1381 14.0175 93.2219 13.0328C92.3057 12.106 91.8476 10.8896 91.8476 9.44154V9.32569C91.8476 7.87761 92.3057 6.66121 93.2219 5.67651C94.1381 4.74974 95.3406 4.22843 96.8294 4.22843C98.2609 4.22843 99.4634 4.69181 100.38 5.61859C101.296 6.54537 101.754 7.76176 101.754 9.20985V9.32569C101.754 10.7738 101.296 11.9902 100.38 12.9749C99.4634 14.0175 98.3182 14.4809 96.8294 14.4809ZM103.529 4.4022H105.991L108.568 11.1792L111.088 4.4022H113.493V14.365H111.66V6.83498L108.74 14.365H108.167L105.19 6.83498V14.365H103.529V4.4022ZM121.853 5.90821H117.615V14.365H115.783V4.4022H123.685V14.365H121.853V5.90821ZM128.438 10.7738C128.323 11.9323 128.094 12.859 127.693 13.5541C127.293 14.1913 126.663 14.5388 125.804 14.5388C125.575 14.5388 125.46 14.5388 125.288 14.4809C125.231 14.4809 125.174 14.423 125.117 14.423V12.7432H125.231C125.346 12.7432 125.46 12.7432 125.575 12.7432C125.918 12.7432 126.205 12.5694 126.376 12.1639C126.548 11.7585 126.663 11.1792 126.777 10.3104C126.892 8.51476 127.006 6.48744 127.006 4.34427H133.534V14.3071H131.702V5.90821H128.667C128.61 7.87761 128.495 9.44154 128.438 10.7738ZM135.767 4.4022H141.894V5.85028H137.6V8.57269H141.035V9.96285H137.6V12.859H142.123V14.3071H135.767V4.4022ZM143.784 4.4022H145.616V8.92023L149.396 4.4022H151.342L147.277 9.15192L151.571 14.365H149.396L145.616 9.73116V14.365H143.784V4.4022ZM156.324 14.4809C154.778 14.4809 153.633 14.0175 152.774 13.0907C151.915 12.1639 151.514 10.9476 151.514 9.38362V9.26777C151.514 7.76176 151.972 6.54537 152.888 5.61859C153.805 4.69181 154.95 4.1705 156.324 4.1705C157.469 4.1705 158.443 4.46012 159.245 5.03935C159.989 5.61859 160.447 6.48744 160.562 7.64591H158.729C158.615 6.95083 158.386 6.48744 157.985 6.1399C157.584 5.79236 157.069 5.61859 156.381 5.61859C155.523 5.61859 154.835 5.96613 154.32 6.60329C153.805 7.24045 153.518 8.1093 153.518 9.20985V9.32569C153.518 10.4262 153.747 11.2951 154.263 11.9323C154.778 12.5694 155.465 12.859 156.381 12.859C157.069 12.859 157.641 12.6853 158.099 12.3377C158.557 11.9902 158.786 11.4689 158.901 10.7738H160.676C160.562 11.9323 160.103 12.859 159.302 13.4383C158.5 14.1913 157.527 14.4809 156.324 14.4809ZM162.222 4.4022H164.055V8.63061H168.464V4.4022H170.296V14.365H168.464V10.1366H164.055V14.365H162.222V4.4022ZM172.529 4.4022H174.362V8.16722H175.621C176.709 8.16722 177.625 8.39892 178.255 8.92023C178.885 9.44154 179.229 10.1945 179.229 11.1792V11.2372C179.229 12.2798 178.885 13.0328 178.255 13.5541C177.625 14.0754 176.709 14.365 175.564 14.365H172.472V4.4022H172.529ZM182.092 14.365H180.26V4.4022H182.092V14.365ZM175.564 12.9169C176.824 12.9169 177.396 12.3377 177.396 11.2372V11.1792C177.396 10.0787 176.767 9.49946 175.564 9.49946H174.304V12.9169H175.564ZM184.325 4.4022H190.452V5.85028H186.157V8.57269H189.593V9.96285H186.157V12.859H190.681V14.3071H184.325V4.4022ZM87.7248 31.6262C86.5796 31.6262 85.6061 31.3366 84.8045 30.6995C84.0028 30.1202 83.5447 29.2514 83.4302 28.1508H85.2625C85.4916 29.4831 86.2933 30.1782 87.7248 30.1782C88.5265 30.1782 89.2136 29.8885 89.6717 29.3672C90.187 28.8459 90.4734 28.0929 90.5306 27.1661H86.4078V25.776H90.5879C90.4734 24.8492 90.187 24.1541 89.729 23.6907C89.2709 23.2273 88.641 22.9377 87.8393 22.9377C86.4078 22.9377 85.6061 23.6328 85.4343 25.023H83.602C83.7737 23.8645 84.2318 22.9377 84.9762 22.3585C85.7206 21.7792 86.6941 21.4896 87.8966 21.4896C89.2709 21.4896 90.4161 21.953 91.275 22.8798C92.1339 23.8066 92.5348 24.965 92.5348 26.471V26.5869C92.5348 28.1508 92.0767 29.3672 91.2178 30.3519C90.3588 31.1049 89.2136 31.6262 87.7248 31.6262ZM96.4286 27.8612C96.314 29.0197 96.085 29.9465 95.6842 30.6415C95.2833 31.2787 94.6535 31.6262 93.7945 31.6262C93.5655 31.6262 93.451 31.6262 93.2792 31.5683C93.2219 31.5683 93.1647 31.5104 93.1074 31.5104V29.9465H93.2219C93.3364 29.9465 93.451 29.9465 93.5655 29.9465C93.909 29.9465 94.1954 29.7727 94.3671 29.3672C94.5389 28.9618 94.6535 28.3825 94.768 27.5137C94.8825 25.718 94.997 23.6907 94.997 21.5476H101.525V31.5104H99.6925V22.9956H96.6576C96.6003 24.965 96.5431 26.5869 96.4286 27.8612ZM103.758 21.5476H109.942V22.9956H105.648V25.718H109.083V27.1082H105.648V30.0044H110.171V31.4525H103.815V21.5476H103.758ZM111.775 21.5476H113.607V26.0656L117.386 21.5476H119.333L115.268 26.2973L119.562 31.5104H117.386L113.607 26.8765V31.5104H111.775V21.5476ZM122.769 22.9956H120.02V21.5476H127.35V22.9956H124.601V31.4525H122.769V22.9956ZM128.781 21.5476H131.931C133.076 21.5476 133.935 21.7792 134.622 22.3006C135.252 22.8219 135.595 23.5749 135.595 24.6175V24.6754C135.595 25.6601 135.252 26.471 134.622 26.9344C133.992 27.4557 133.076 27.6874 131.988 27.6874H130.614V31.4525H128.781V21.5476ZM131.931 26.3552C133.191 26.3552 133.763 25.776 133.763 24.6754V24.6175C133.763 23.5169 133.133 22.9956 131.931 22.9956H130.614V26.4131H131.931V26.3552ZM141.722 30.1202C142.639 30.1202 143.383 29.7727 143.956 29.1355C144.528 28.4984 144.757 27.6295 144.757 26.529V26.4131C144.757 25.3705 144.471 24.5016 143.956 23.8645C143.383 23.2273 142.639 22.8798 141.722 22.8798C140.749 22.8798 140.005 23.2273 139.489 23.8645C138.917 24.5016 138.688 25.3705 138.688 26.471V26.5869C138.688 27.6874 138.974 28.4984 139.547 29.1935C140.119 29.7727 140.864 30.1202 141.722 30.1202ZM141.722 31.6262C140.234 31.6262 139.031 31.1628 138.115 30.1782C137.199 29.2514 136.741 28.035 136.741 26.5869V26.471C136.741 25.023 137.199 23.8066 138.115 22.8219C139.031 21.8951 140.234 21.3738 141.722 21.3738C143.211 21.3738 144.357 21.8372 145.273 22.7639C146.189 23.6907 146.647 24.9071 146.647 26.3552V26.471C146.647 27.9191 146.189 29.1355 145.273 30.1202C144.357 31.1049 143.211 31.6262 141.722 31.6262ZM149.968 22.9956H147.22V21.5476H154.549V22.9956H151.801V31.4525H149.968V22.9956ZM156.038 21.5476H162.165V22.9956H157.87V25.718H161.306V27.1082H157.87V30.0044H162.394V31.4525H156.038V21.5476ZM166.574 26.3552L163.654 21.4896H165.715L167.777 25.023L169.838 21.4896H171.728L168.807 26.2973L171.957 31.4525H169.895L167.605 27.5716L165.314 31.4525H163.425L166.574 26.3552ZM173.617 21.5476H175.45V25.776H179.859V21.5476H181.691V31.5104H179.859V27.2241H175.45V31.4525H173.617V21.5476ZM183.924 31.4525V21.5476H185.757V28.9618L190.338 21.4896H192.17V31.4525H190.338V23.9803L185.757 31.4525H183.924ZM199.958 31.4525V27.0503C199.786 27.1661 199.557 27.3399 199.328 27.4557C198.812 27.6874 198.182 27.8612 197.438 27.8612C196.35 27.8612 195.548 27.5137 194.976 26.8765C194.403 26.2394 194.117 25.3126 194.117 24.0383V21.5476H195.949V24.1541C195.949 25.6601 196.579 26.4131 197.782 26.4131C198.469 26.4131 199.041 26.2973 199.499 26.0077C199.728 25.8918 199.843 25.718 200.015 25.5443V21.6055H201.847V31.5683H199.958V31.4525ZM204.023 21.5476H210.15V22.9956H205.855V25.718H209.291V27.1082H205.855V30.0044H210.379V31.4525H204.023V21.5476ZM216.22 31.6262C214.674 31.6262 213.529 31.1629 212.67 30.2361C211.811 29.3093 211.41 28.0929 211.41 26.529V26.4131C211.41 24.9071 211.868 23.6907 212.784 22.7639C213.7 21.8372 214.846 21.3159 216.22 21.3159C217.365 21.3159 218.339 21.6055 219.14 22.1847C219.885 22.7639 220.343 23.6328 220.457 24.7913H218.625C218.51 24.0962 218.281 23.6328 217.88 23.2853C217.48 22.9377 216.964 22.7639 216.277 22.7639C215.418 22.7639 214.731 23.1115 214.216 23.7486C213.7 24.3858 213.414 25.2547 213.414 26.3552V26.471C213.414 27.5716 213.643 28.4404 214.158 29.0776C214.674 29.7148 215.361 30.0044 216.277 30.0044C216.964 30.0044 217.537 29.8306 217.995 29.4831C218.453 29.1355 218.682 28.6142 218.797 27.9191H220.572C220.457 29.0776 219.999 30.0044 219.197 30.5836C218.396 31.2787 217.422 31.6262 216.22 31.6262ZM222.118 21.5476H223.95V26.0656L227.729 21.5476H229.676L225.611 26.2973L229.905 31.5104H227.729L223.95 26.8765V31.5104H222.118V21.5476ZM231.165 31.4525V21.5476H232.997V28.9618L237.578 21.4896H239.411V31.4525H237.578V23.9803L232.997 31.4525H231.165ZM241.644 21.5476H247.771V22.9956H243.476V25.718H246.912V27.1082H243.476V30.0044H248V31.4525H241.644V21.5476ZM90.187 40.141H85.9497V48.5978H84.1173V38.635H92.0767V48.5978H90.2443V40.141H90.187ZM98.7763 47.2656C99.6925 47.2656 100.437 46.918 101.009 46.2809C101.582 45.6437 101.811 44.7749 101.811 43.6743V43.5585C101.811 42.5159 101.525 41.647 101.009 41.0098C100.437 40.3727 99.6925 40.0251 98.7763 40.0251C97.8028 40.0251 97.0584 40.3727 96.5431 41.0098C95.9705 41.647 95.7414 42.5159 95.7414 43.6164V43.7323C95.7414 44.8328 96.0277 45.6437 96.6003 46.3388C97.173 46.918 97.9174 47.2656 98.7763 47.2656ZM98.7763 48.7137C97.2875 48.7137 96.085 48.2503 95.1688 47.2656C94.2526 46.3388 93.7945 45.1224 93.7945 43.6743V43.5585C93.7945 42.1104 94.2526 40.894 95.1688 39.9093C96.085 38.9825 97.2875 38.4612 98.7763 38.4612C100.208 38.4612 101.41 38.9246 102.327 39.8514C103.243 40.7782 103.701 41.9945 103.701 43.4426V43.5585C103.701 45.0066 103.243 46.223 102.327 47.2077C101.41 48.2503 100.265 48.7137 98.7763 48.7137ZM109.771 48.7137C108.224 48.7137 107.079 48.2503 106.22 47.3235C105.361 46.3967 104.961 45.1803 104.961 43.6164V43.5006C104.961 41.9945 105.419 40.7782 106.335 39.8514C107.251 38.9246 108.396 38.4033 109.771 38.4033C110.916 38.4033 111.889 38.6929 112.691 39.2721C113.435 39.8514 113.893 40.7202 114.008 41.8787H112.175C112.061 41.1836 111.832 40.7202 111.431 40.3727C111.03 40.0251 110.515 39.8514 109.828 39.8514C108.969 39.8514 108.282 40.1989 107.766 40.8361C107.251 41.4732 106.965 42.3421 106.965 43.4426V43.5585C106.965 44.659 107.194 45.5279 107.709 46.165C108.224 46.8022 108.912 47.0918 109.828 47.0918C110.515 47.0918 111.088 46.918 111.546 46.5705C112.004 46.223 112.233 45.7016 112.347 45.0066H114.122C114.008 46.165 113.55 47.0918 112.748 47.6711C111.946 48.4241 110.973 48.7137 109.771 48.7137ZM117.501 40.0831H114.752V38.635H122.082V40.0831H119.333V48.5399H117.501V40.0831ZM125.117 38.635H127.522L130.786 48.5978H128.839L128.037 46.165H124.258L123.513 48.5978H121.795L125.117 38.635ZM124.716 44.7749H127.636L126.205 40.141L124.716 44.7749ZM132.217 38.635H135.71C137.829 38.635 138.917 39.5038 138.917 41.2415V41.2995C138.917 42.4 138.401 43.0951 137.371 43.3847C138.058 43.5585 138.516 43.7902 138.859 44.1956C139.203 44.5432 139.317 45.0645 139.317 45.7596V45.8175C139.317 46.7443 139.031 47.4394 138.459 47.9027C137.886 48.3661 137.027 48.5978 135.939 48.5978H132.16V38.635H132.217ZM135.767 47.2656C136.97 47.2656 137.542 46.7443 137.542 45.7017V45.6437C137.542 45.1224 137.371 44.717 137.084 44.4853C136.798 44.2536 136.283 44.1377 135.653 44.1377H133.992V47.3235H135.767V47.2656ZM135.538 42.8055C136.111 42.8055 136.569 42.6896 136.798 42.4579C137.084 42.2262 137.199 41.8787 137.199 41.3574V41.2995C137.199 40.8361 137.084 40.4885 136.798 40.2568C136.512 40.0251 136.111 39.9093 135.481 39.9093H133.992V42.7476H135.538V42.8055ZM141.093 38.635H142.925V43.153L146.704 38.635H148.651L144.586 43.3847L148.88 48.5978H146.704L142.925 43.9639V48.5978H141.093V38.635ZM150.14 48.5978V38.635H151.972V46.1071L156.553 38.635H158.386V48.5978H156.553V41.0678L151.972 48.5399H150.14V48.5978Z" fill="white"/>
</g>
<defs>
<clipPath id="clip0_4_8">
<rect width="248" height="53" fill="white"/>
</clipPath>
</defs>
</svg>
