<svg width="8" height="15" viewBox="0 0 8 15" fill="none" xmlns="http://www.w3.org/2000/svg">
<path d="M0.460018 6.79004L6.12002 1.14004C6.21298 1.04631 6.32358 0.971914 6.44544 0.921145C6.5673 0.870377 6.69801 0.844238 6.83002 0.844238C6.96203 0.844238 7.09274 0.870377 7.21459 0.921145C7.33645 0.971914 7.44706 1.04631 7.54002 1.14004C7.72627 1.3274 7.83081 1.58085 7.83081 1.84504C7.83081 2.10922 7.72627 2.36267 7.54002 2.55004L2.59002 7.55004L7.54002 12.5C7.72627 12.6874 7.83081 12.9409 7.83081 13.205C7.83081 13.4692 7.72627 13.7227 7.54002 13.91C7.4474 14.0045 7.33696 14.0797 7.21508 14.1312C7.09321 14.1827 6.96233 14.2095 6.83002 14.21C6.69771 14.2095 6.56683 14.1827 6.44495 14.1312C6.32308 14.0797 6.21263 14.0045 6.12002 13.91L0.460018 8.26004C0.358513 8.16639 0.277505 8.05274 0.222097 7.92624C0.16669 7.79974 0.138085 7.66314 0.138085 7.52504C0.138085 7.38693 0.16669 7.25033 0.222097 7.12383C0.277505 6.99733 0.358513 6.88368 0.460018 6.79004Z" fill="black"/>
</svg>
