<svg width="20" height="18" viewBox="0 0 20 18" fill="none" xmlns="http://www.w3.org/2000/svg">
<g clip-path="url(#clip0_4_22)">
<path d="M18.5468 0.251876L0.783029 7.4675C0.783029 7.4675 -0.0597046 7.76299 0.00665237 8.31275C0.0730094 8.86252 0.756487 9.11678 0.756487 9.11678L5.22231 10.6767L5.22895 10.6836V10.6767L15.9522 3.61917C15.9522 3.61917 16.5694 3.22746 16.5495 3.61917C16.5495 3.61917 16.6623 3.68789 16.3305 4.01087C15.9987 4.33386 7.90314 11.8656 7.90314 11.8656L7.88986 12.0099L15.1759 17.7961C16.3902 18.3459 16.8348 17.1983 16.8348 17.1983L20 0.684814C20 -0.414709 18.5402 0.251876 18.5468 0.251876Z" fill="white"/>
<path d="M10.6768 14.2227L7.79029 16.9509C7.79029 16.9509 7.56467 17.1296 7.31915 17.0196L7.86992 11.955" fill="white"/>
</g>
<defs>
<clipPath id="clip0_4_22">
<rect width="20" height="17.8947" fill="white" transform="translate(0 0.0526123)"/>
</clipPath>
</defs>
</svg>
